<svg width="171" height="343" viewBox="0 0 171 343" fill="none" xmlns="http://www.w3.org/2000/svg">
<g clip-path="url(#clip0_6_5)">
<path d="M1.54207 227.973C13.9179 231.56 24.8797 221.774 37.163 226.32C41.1555 227.559 47.4147 230.01 47.6158 223.687C48.4032 215.465 44.6783 207.373 44.6573 199.063C44.3849 189.755 42.6372 180.349 45.5174 171.251C46.1382 165.602 45.3615 159.437 46.1854 154.111C49.7035 149.631 50.6597 160.367 54.1228 161.762C66.2818 168.996 77.4935 177.978 90.7571 183.377C96.3208 195.575 99.5008 208.533 102.98 221.371C107.031 226.544 111.89 231.266 116.007 236.243C118.585 243.762 120.261 251.695 125.741 257.883C130.866 271.635 136.718 285.195 142.854 298.457C143.944 305.634 146.111 313.615 144.232 320.473C137.241 326.704 128.84 330.995 120.682 335.621C115.427 339.799 123.528 342.495 127.274 342.233C137.644 339.243 148.748 338 157.826 331.929C161.808 329.362 168.095 328.841 168.167 323.171C170.33 318.531 163.678 315.403 161.779 311.46C159.479 297.168 158.138 282.71 157.212 268.257C152.101 257.682 146.96 247.123 140.915 237C144.734 209.761 148.952 182.556 153.278 155.402C153.643 148.428 151.666 140.904 156.575 134.995C158.756 129.347 162.812 125.154 167.939 121.794C172.36 119.062 168.841 112.936 169.621 108.647C169.801 95.2086 169.624 81.7957 167.424 68.4882C168.063 61.9127 162.226 57.7752 158.898 52.6925C153.84 50.4022 148.775 48.1273 143.43 46.5108C141.855 41.8944 142.189 37.3949 144.377 33.0227C147.72 25.5478 146.403 16.5495 141.732 9.97495C137.986 6.1481 134.598 1.73591 128.644 1.52149C120.783 -0.4913 111.959 1.57429 105.597 6.38046C101.342 8.74363 99.1547 13.793 101.358 18.1216C103.721 22.3923 100.178 29.4848 105.281 32.1253C104.669 35.0955 99.7765 40.7994 106.274 41.4615C109.78 44.9425 116.052 44.6269 110.246 49.4065C107.727 55.0629 116.025 56.1307 119.703 53.5223C123.561 56.6212 115.508 59.6767 114.282 62.9849C107.953 69.4061 107.16 78.58 105.944 86.9531C105.037 98.8981 102.486 110.574 100.509 122.365C100.06 126.961 99.0939 133.187 94.6541 135.334C73.0694 130.5 51.8655 118.482 29.4909 123.351C24.3864 124.462 22.5479 133.162 21.3079 137.885C19.7287 146.329 20.5824 155.315 21.7704 163.815C23.9654 177.005 28.7283 189.727 31.3822 202.744C33.1192 212.683 21.1363 214.382 15.0784 219.847C11.8733 223.027 -2.66209 222.82 1.54029 227.974L1.54207 227.973Z" fill="white" stroke="white"/>
<path d="M64.2795 85.4203C64.2795 98.3963 53.31 108.915 39.7785 108.915C26.2468 108.915 15.2774 98.3961 15.2774 85.4203C15.2774 72.4442 26.247 61.9254 39.7785 61.9254C53.3102 61.9254 64.2795 72.4444 64.2795 85.4203Z" fill="white"/>
</g>
<defs>
<clipPath id="clip0_6_5">
<rect width="171" height="343" fill="white"/>
</clipPath>
</defs>
</svg>
